<svg width="722" height="458" viewBox="0 0 722 458" fill="none" xmlns="http://www.w3.org/2000/svg">
<g id="nubank">
<g id="Rectangle 968" filter="url(#filter0_i_609_104)">
<rect width="722" height="458" rx="25" fill="url(#paint0_linear_609_104)"/>
</g>
<path id="Roger Benedik" d="M223.16 363V345.36H226.568V363H223.16ZM233.864 363L228.488 355.368H232.304L237.848 363H233.864ZM225.56 357.144V354.384H230.024C230.648 354.384 231.184 354.256 231.632 354C232.096 353.744 232.456 353.384 232.712 352.92C232.968 352.456 233.096 351.928 233.096 351.336C233.096 350.728 232.968 350.192 232.712 349.728C232.456 349.264 232.096 348.904 231.632 348.648C231.184 348.392 230.648 348.264 230.024 348.264H225.56V345.36H229.664C231.072 345.36 232.288 345.568 233.312 345.984C234.352 346.4 235.152 347.032 235.712 347.88C236.272 348.728 236.552 349.792 236.552 351.072V351.456C236.552 352.752 236.264 353.816 235.688 354.648C235.128 355.48 234.336 356.104 233.312 356.52C232.288 356.936 231.072 357.144 229.664 357.144H225.56ZM250.831 363.456C249.247 363.456 247.871 363.176 246.703 362.616C245.551 362.056 244.591 361.328 243.823 360.432C243.071 359.52 242.503 358.544 242.119 357.504C241.751 356.448 241.567 355.432 241.567 354.456V353.928C241.567 352.856 241.759 351.792 242.143 350.736C242.527 349.664 243.103 348.696 243.871 347.832C244.655 346.968 245.623 346.28 246.775 345.768C247.927 345.24 249.279 344.976 250.831 344.976C252.367 344.976 253.711 345.24 254.863 345.768C256.015 346.28 256.975 346.968 257.743 347.832C258.527 348.696 259.111 349.664 259.495 350.736C259.879 351.792 260.071 352.856 260.071 353.928V354.456C260.071 355.432 259.879 356.448 259.495 357.504C259.127 358.544 258.559 359.52 257.791 360.432C257.039 361.328 256.079 362.056 254.911 362.616C253.759 363.176 252.399 363.456 250.831 363.456ZM250.831 360.288C251.727 360.288 252.527 360.128 253.231 359.808C253.951 359.488 254.559 359.048 255.055 358.488C255.567 357.912 255.951 357.264 256.207 356.544C256.479 355.808 256.615 355.032 256.615 354.216C256.615 353.336 256.479 352.528 256.207 351.792C255.951 351.056 255.567 350.416 255.055 349.872C254.559 349.328 253.951 348.904 253.231 348.6C252.511 348.296 251.711 348.144 250.831 348.144C249.935 348.144 249.127 348.296 248.407 348.6C247.687 348.904 247.071 349.328 246.559 349.872C246.063 350.416 245.679 351.056 245.407 351.792C245.151 352.528 245.023 353.336 245.023 354.216C245.023 355.032 245.151 355.808 245.407 356.544C245.679 357.264 246.063 357.912 246.559 358.488C247.071 359.048 247.687 359.488 248.407 359.808C249.127 360.128 249.935 360.288 250.831 360.288ZM273.925 363.456C272.421 363.456 271.093 363.208 269.941 362.712C268.805 362.2 267.845 361.52 267.061 360.672C266.293 359.808 265.709 358.84 265.309 357.768C264.925 356.68 264.733 355.552 264.733 354.384V353.856C264.733 352.752 264.925 351.672 265.309 350.616C265.693 349.56 266.253 348.608 266.989 347.76C267.741 346.912 268.661 346.24 269.749 345.744C270.853 345.232 272.117 344.976 273.541 344.976C275.077 344.976 276.437 345.264 277.621 345.84C278.805 346.4 279.757 347.192 280.477 348.216C281.197 349.224 281.621 350.4 281.749 351.744H278.317C278.205 350.992 277.925 350.352 277.477 349.824C277.029 349.28 276.461 348.864 275.773 348.576C275.101 348.288 274.357 348.144 273.541 348.144C272.725 348.144 271.981 348.288 271.309 348.576C270.653 348.864 270.093 349.272 269.629 349.8C269.165 350.328 268.805 350.96 268.549 351.696C268.309 352.432 268.189 353.248 268.189 354.144C268.189 355.12 268.325 355.992 268.597 356.76C268.869 357.528 269.253 358.184 269.749 358.728C270.245 359.256 270.845 359.664 271.549 359.952C272.253 360.224 273.045 360.36 273.925 360.36C275.093 360.36 276.117 360.12 276.997 359.64C277.877 359.144 278.517 358.504 278.917 357.72L278.317 360.48V355.968H281.461V359.856C280.709 360.992 279.685 361.88 278.389 362.52C277.093 363.144 275.605 363.456 273.925 363.456ZM273.373 356.64V354.096H282.925V356.64H273.373ZM288.133 363V345.48H291.469V363H288.133ZM290.989 363V360.12H298.933V363H290.989ZM290.989 355.536V352.656H298.309V355.536H290.989ZM290.989 348.36V345.48H298.741V348.36H290.989ZM304.83 363V345.36H308.238V363H304.83ZM315.534 363L310.158 355.368H313.974L319.518 363H315.534ZM307.23 357.144V354.384H311.694C312.318 354.384 312.854 354.256 313.302 354C313.766 353.744 314.126 353.384 314.382 352.92C314.638 352.456 314.766 351.928 314.766 351.336C314.766 350.728 314.638 350.192 314.382 349.728C314.126 349.264 313.766 348.904 313.302 348.648C312.854 348.392 312.318 348.264 311.694 348.264H307.23V345.36H311.334C312.742 345.36 313.958 345.568 314.982 345.984C316.022 346.4 316.822 347.032 317.382 347.88C317.942 348.728 318.222 349.792 318.222 351.072V351.456C318.222 352.752 317.934 353.816 317.358 354.648C316.798 355.48 316.006 356.104 314.982 356.52C313.958 356.936 312.742 357.144 311.334 357.144H307.23ZM334.939 363.12V360.384H339.331C340.131 360.384 340.739 360.168 341.155 359.736C341.571 359.288 341.779 358.68 341.779 357.912C341.779 357.144 341.571 356.552 341.155 356.136C340.739 355.704 340.131 355.488 339.331 355.488H334.939V353.4H339.091C340.259 353.4 341.299 353.544 342.211 353.832C343.139 354.104 343.859 354.568 344.371 355.224C344.899 355.88 345.163 356.76 345.163 357.864V358.2C345.163 359.24 344.931 360.128 344.467 360.864C344.019 361.584 343.339 362.144 342.427 362.544C341.531 362.928 340.419 363.12 339.091 363.12H334.939ZM332.083 363.12V345.36H335.419V363.12H332.083ZM334.939 354.936V352.848H338.683C339.499 352.848 340.099 352.632 340.483 352.2C340.867 351.768 341.059 351.192 341.059 350.472C341.059 349.752 340.867 349.176 340.483 348.744C340.099 348.312 339.499 348.096 338.683 348.096H334.939V345.36H338.371C340.355 345.36 341.859 345.776 342.883 346.608C343.923 347.44 344.443 348.632 344.443 350.184V350.52C344.443 351.608 344.179 352.48 343.651 353.136C343.139 353.776 342.427 354.24 341.515 354.528C340.603 354.8 339.555 354.936 338.371 354.936H334.939ZM351.007 363V345.48H354.343V363H351.007ZM353.863 363V360.12H361.807V363H353.863ZM353.863 355.536V352.656H361.183V355.536H353.863ZM353.863 348.36V345.48H361.615V348.36H353.863ZM367.704 363V345.48H373.296L380.664 360.168H381.456L380.976 360.6V345.48H384.192V363H378.576L371.208 348.312H370.392L370.872 347.88V363H367.704ZM390.916 363V345.48H394.252V363H390.916ZM393.772 363V360.12H401.716V363H393.772ZM393.772 355.536V352.656H401.092V355.536H393.772ZM393.772 348.36V345.48H401.524V348.36H393.772ZM410.541 363.096V359.928H414.165C415.077 359.928 415.885 359.792 416.589 359.52C417.309 359.232 417.917 358.832 418.413 358.32C418.909 357.808 419.285 357.208 419.541 356.52C419.813 355.816 419.949 355.04 419.949 354.192C419.949 353.312 419.813 352.528 419.541 351.84C419.285 351.136 418.909 350.536 418.413 350.04C417.917 349.544 417.309 349.168 416.589 348.912C415.885 348.656 415.077 348.528 414.165 348.528H410.541V345.36H413.949C415.533 345.36 416.917 345.592 418.101 346.056C419.285 346.52 420.269 347.16 421.053 347.976C421.837 348.776 422.421 349.696 422.805 350.736C423.205 351.76 423.405 352.824 423.405 353.928V354.456C423.405 355.512 423.205 356.552 422.805 357.576C422.421 358.6 421.837 359.528 421.053 360.36C420.269 361.192 419.285 361.856 418.101 362.352C416.917 362.848 415.533 363.096 413.949 363.096H410.541ZM407.613 363.096V345.36H411.021V363.096H407.613ZM428.905 363V345.48H432.313V363H428.905ZM450.437 363L444.029 354.816H441.557L449.165 345.48H453.077L446.213 353.88L446.117 352.2L454.589 363H450.437ZM439.085 363V345.48H442.493V363H439.085Z" fill="#FEFBFF"/>
<path id="Union" fill-rule="evenodd" clip-rule="evenodd" d="M94.6654 319.851C94.6654 319.852 94.6657 319.826 94.6766 319.771C94.6871 319.717 94.7054 319.646 94.7347 319.559C94.7935 319.385 94.8901 319.165 95.0334 318.917C95.32 318.421 95.7759 317.841 96.4342 317.301C97.733 316.235 99.8636 315.292 103.14 315.533C116.1 316.484 123.415 325.41 123.415 332.161V372.168C123.415 372.805 123.268 373.099 123.132 373.241C123.004 373.375 122.718 373.546 122.028 373.546H114.306C113.616 373.546 113.33 373.375 113.202 373.241C113.066 373.1 112.919 372.805 112.919 372.168V335.238C112.919 332.828 111.735 330.421 109.988 328.634C108.238 326.842 105.817 325.566 103.213 325.566H94.6654V319.851ZM103.213 327.566H94.6654V372.168C94.6654 373.162 94.4817 374.108 93.7928 374.763C93.1156 375.407 92.1813 375.546 91.2784 375.546H83.4154C82.6084 375.546 81.7233 375.389 81.0382 374.792C80.3257 374.171 80.0284 373.251 80.0284 372.168V334.819C80.0284 332.956 81.0921 330.668 82.6635 328.878C84.2482 327.074 86.5354 325.566 89.1714 325.566H92.6654V319.851C92.6654 319.284 92.9171 318.582 93.3016 317.917C93.7056 317.217 94.317 316.45 95.1659 315.754C96.8815 314.347 99.525 313.262 103.287 313.538C117.005 314.545 125.415 324.098 125.415 332.161V372.168C125.415 373.069 125.212 373.963 124.575 374.626C123.931 375.297 123.024 375.546 122.028 375.546H114.306C113.311 375.546 112.403 375.297 111.759 374.626C111.123 373.963 110.919 373.069 110.919 372.168V335.238C110.919 333.463 110.026 331.534 108.558 330.031C107.093 328.532 105.161 327.566 103.213 327.566ZM89.1714 327.566H92.6654V372.168C92.6654 372.991 92.498 373.235 92.4146 373.314C92.3196 373.404 92.0604 373.546 91.2784 373.546H83.4154C82.8182 373.546 82.5098 373.422 82.3524 373.285C82.2226 373.171 82.0284 372.902 82.0284 372.168V334.819C82.0284 333.604 82.7896 331.766 84.1664 330.198C85.5299 328.645 87.3142 327.566 89.1714 327.566ZM164.111 381.128C164.111 381.13 164.11 381.156 164.1 381.209C164.089 381.262 164.071 381.333 164.042 381.42C163.983 381.595 163.886 381.814 163.743 382.063C163.457 382.559 163.001 383.139 162.342 383.679C161.043 384.744 158.913 385.687 155.636 385.447C142.676 384.495 135.361 375.569 135.361 368.819V328.812C135.361 328.175 135.508 327.88 135.644 327.739C135.772 327.605 136.058 327.434 136.748 327.434H144.471C145.16 327.434 145.446 327.605 145.575 327.739C145.71 327.88 145.858 328.175 145.858 328.812V365.741C145.858 368.151 147.042 370.559 148.788 372.346C150.539 374.137 152.96 375.414 155.563 375.414H164.111V381.128V381.128ZM155.563 373.414H164.111V328.812C164.111 327.817 164.295 326.872 164.984 326.216C165.661 325.572 166.595 325.434 167.498 325.434H175.361C176.168 325.434 177.053 325.59 177.738 326.187C178.451 326.808 178.748 327.728 178.748 328.812V366.161C178.748 368.023 177.684 370.312 176.113 372.101C174.528 373.906 172.241 375.414 169.605 375.414H166.111V381.128C166.111 381.695 165.859 382.397 165.475 383.063C165.071 383.762 164.459 384.529 163.611 385.225C161.895 386.632 159.252 387.718 155.49 387.441C141.772 386.434 133.361 376.882 133.361 368.819V328.812C133.361 327.91 133.565 327.016 134.201 326.353C134.845 325.683 135.753 325.434 136.748 325.434H144.471C145.466 325.434 146.373 325.683 147.017 326.353C147.654 327.016 147.858 327.91 147.858 328.812V365.741C147.858 367.516 148.75 369.445 150.219 370.948C151.683 372.447 153.615 373.414 155.563 373.414ZM169.605 373.414H166.111V328.812C166.111 327.988 166.279 327.745 166.362 327.666C166.457 327.575 166.716 327.434 167.498 327.434H175.361C175.958 327.434 176.267 327.558 176.424 327.695C176.554 327.808 176.748 328.077 176.748 328.812V366.161C176.748 367.376 175.987 369.214 174.61 370.782C173.247 372.334 171.462 373.414 169.605 373.414Z" fill="#FEFBFF"/>
<circle id="Ellipse 10" cx="581.889" cy="86.4971" r="45.7505" fill="#E71924"/>
<circle id="Ellipse 11" cx="637.647" cy="86.4971" r="45.7505" fill="#F99F19"/>
<path id="Intersect" fill-rule="evenodd" clip-rule="evenodd" d="M609.768 122.595C620.636 114.23 627.64 101.092 627.64 86.3172C627.64 71.5427 620.636 58.404 609.768 50.0396C598.9 58.404 591.897 71.5427 591.897 86.3172C591.897 101.092 598.9 114.23 609.768 122.595Z" fill="#F26520"/>
<g id="Group 301">
<rect id="Rectangle 344" x="80.4209" y="156.195" width="97.9347" height="69.3406" rx="6.07624" fill="url(#paint1_linear_609_104)" stroke="#211F21" stroke-width="2.14455"/>
<path id="Vector 9" d="M80.7783 178.713H110.087" stroke="#211F21" stroke-width="2" stroke-linecap="round"/>
<path id="Vector 10" d="M80.7783 200.873H109.445" stroke="#211F21" stroke-width="2" stroke-linecap="round"/>
<path id="Vector 11" d="M149.404 200.873H177.998" stroke="#211F21" stroke-width="2" stroke-linecap="round"/>
<path id="Vector 12" d="M148.975 179.428H177.998" stroke="#211F21" stroke-width="2" stroke-linecap="round"/>
<circle id="Ellipse 12" cx="129.388" cy="166.561" r="2.14455" fill="#211F21"/>
<g id="Vector 13">
<path d="M231.053 205.824C236.325 192.59 236.926 185.119 231.053 171.645C230.43 170.215 231.053 169.024 231.768 168.786C232.483 168.547 233.589 168.786 234.27 170.215C241.188 184.73 240.767 192.87 234.627 207.387C233.912 208.817 232.575 208.998 231.768 208.46C230.824 207.831 230.608 206.941 231.053 205.824Z" fill="#FEFBFF"/>
<path d="M223.547 172.717C222.832 173.075 222.375 174.43 223.19 175.934C227.999 185.94 227.801 191.662 223.19 202.026C222.686 203.071 222.998 204.226 223.905 204.528C224.977 204.886 225.913 204.125 226.406 203.098C231.701 192.084 231.84 185.756 226.406 174.147C225.905 173.075 224.619 172.181 223.547 172.717Z" fill="#FEFBFF"/>
<path d="M216.399 177.364C215.326 177.721 215.136 178.908 215.684 180.223C218.53 187.063 218.979 190.898 215.684 197.737C215.041 198.929 214.83 200.193 216.041 200.596C217.252 201 218.126 200.363 218.543 199.524C222.766 191.149 221.82 186.454 218.543 178.079C218.263 177.364 217.471 177.006 216.399 177.364Z" fill="#FEFBFF"/>
<path d="M208.893 180.223C207.82 180.938 207.668 182.022 208.535 183.797C210.344 187.564 210.303 189.68 208.535 193.448C207.713 195.11 207.463 197.022 208.893 197.38C210.322 197.737 210.957 197.229 211.752 195.235C213.578 189.987 213.756 187.02 211.752 181.653C211.291 180.261 210.322 179.508 208.893 180.223Z" fill="#FEFBFF"/>
</g>
<path id="Vector 14" d="M145.115 170.849C142.372 161.508 137.251 156.91 129.03 156.91C119.023 156.91 116.194 164.53 110.087 178.355C113.998 187.507 114.039 192.437 110.087 200.873C116.494 219.254 121.24 224.915 129.388 224.821C140.111 224.821 143.163 215.733 149.046 200.873C145.952 192.497 145.622 187.875 148.5 179.5" stroke="#211F21" stroke-width="2" stroke-linecap="round"/>
</g>
</g>
<defs>
<filter id="filter0_i_609_104" x="0" y="0" width="725" height="461" filterUnits="userSpaceOnUse" color-interpolation-filters="sRGB">
<feFlood flood-opacity="0" result="BackgroundImageFix"/>
<feBlend mode="normal" in="SourceGraphic" in2="BackgroundImageFix" result="shape"/>
<feColorMatrix in="SourceAlpha" type="matrix" values="0 0 0 0 0 0 0 0 0 0 0 0 0 0 0 0 0 0 127 0" result="hardAlpha"/>
<feOffset dx="3" dy="3"/>
<feGaussianBlur stdDeviation="3"/>
<feComposite in2="hardAlpha" operator="arithmetic" k2="-1" k3="1"/>
<feColorMatrix type="matrix" values="0 0 0 0 1 0 0 0 0 1 0 0 0 0 1 0 0 0 0.25 0"/>
<feBlend mode="normal" in2="shape" result="effect1_innerShadow_609_104"/>
</filter>
<linearGradient id="paint0_linear_609_104" x1="610.09" y1="61.83" x2="354.096" y2="526.995" gradientUnits="userSpaceOnUse">
<stop stop-color="#A950C4"/>
<stop offset="1" stop-color="#82269E"/>
</linearGradient>
<linearGradient id="paint1_linear_609_104" x1="171" y1="165" x2="87" y2="221" gradientUnits="userSpaceOnUse">
<stop stop-color="#F4F4F4"/>
<stop offset="1" stop-color="#D6D6D6"/>
</linearGradient>
</defs>
</svg>
